# xmcd CD database file
#
# Track frame offsets:
#	150
#	15376
#	29299
#	42080
#	55394
#	72534
#	89725
#	105612
#	117898
#	134752
#	148456
#	162626
#	175813
#	192630
#	205966
#	220510
#
# Disc length: 3146 seconds
#
# Revision: 0
# Processed by: cddbd v1.5.2PL0 Copyright (c) Steve Scherf et al.
# Submitted via: CDex 1.50Beta7
#
DISCID=fb0c4810
DTITLE=Truck Stop - 35 Jahre Country aus Deutschland 
DYEAR=2008
DGENRE=Country
TTITLE0=Der Sheriff hat heute Geburtstag (Radio Version)
TTITLE1=Nach Cowboyart
TTITLE2=Hey, mach mal Pause
TTITLE3=Der wilde, wilde Westen (Neuaufnahme 1998)
TTITLE4=Heimat ist überall
TTITLE5=Damenwahl (Jetzt geht's los) (Western Dance Version)
TTITLE6=Ich möcht' so gern Dave Dudley hör'n (Neuaufnahme 1998)
TTITLE7=Cisco, Lucius, Erich, Uwe, Teddy und ich
TTITLE8=Eine Gitarre und eine Ukulele
TTITLE9=Bitte erlöse uns, Elvis
TTITLE10=Waterkant
TTITLE11=Take It Easy altes Haus (Neuaufnahme 1998)
TTITLE12=Sonst glaub' ich's nicht
TTITLE13=Wo ist das Feuer?
TTITLE14=Sag Mami Goodbye
TTITLE15=Der Sheriff hat heute Geburtstag (Party Mix)
EXTD=YEAR: 2008
EXTT0=
EXTT1=
EXTT2=
EXTT3=
EXTT4=
EXTT5=
EXTT6=
EXTT7=
EXTT8=
EXTT9=
EXTT10=
EXTT11=
EXTT12=
EXTT13=
EXTT14=
EXTT15=
PLAYORDER=
